<svg width="16" height="16" viewBox="0 0 16 16" fill="none" xmlns="http://www.w3.org/2000/svg">
<path d="M14.0664 5.91667L8.46644 11.5333C8.39977 11.6 8.32755 11.6473 8.24977 11.6753C8.17199 11.7033 8.08866 11.7171 7.99977 11.7167C7.91088 11.7167 7.82755 11.7029 7.74977 11.6753C7.67199 11.6478 7.59977 11.6004 7.5331 11.5333L1.91644 5.91667C1.76088 5.76111 1.68311 5.56667 1.68311 5.33333C1.68311 5.1 1.76644 4.9 1.93311 4.73333C2.09977 4.56667 2.29422 4.48333 2.51644 4.48333C2.73866 4.48333 2.93311 4.56667 3.09977 4.73333L7.99977 9.63333L12.8998 4.73333C13.0553 4.57778 13.2471 4.5 13.4751 4.5C13.7031 4.5 13.9002 4.58333 14.0664 4.75C14.2331 4.91667 14.3164 5.11111 14.3164 5.33333C14.3164 5.55555 14.2331 5.75 14.0664 5.91667Z" fill="#171717"/>
</svg>
