<svg width="77" height="77" viewBox="0 0 77 77" fill="none" xmlns="http://www.w3.org/2000/svg">
<path d="M38.4993 42.9916L47.8035 52.2958C48.3917 52.884 49.1403 53.1781 50.0494 53.1781C50.9584 53.1781 51.707 52.884 52.2952 52.2958C52.8834 51.7076 53.1775 50.959 53.1775 50.05C53.1775 49.1409 52.8834 48.3923 52.2952 47.8041L42.991 38.5L52.2952 29.1958C52.8834 28.6076 53.1775 27.859 53.1775 26.95C53.1775 26.0409 52.8834 25.2923 52.2952 24.7041C51.707 24.1159 50.9584 23.8218 50.0494 23.8218C49.1403 23.8218 48.3917 24.1159 47.8035 24.7041L38.4993 34.0083L29.1952 24.7041C28.607 24.1159 27.8584 23.8218 26.9493 23.8218C26.0403 23.8218 25.2917 24.1159 24.7035 24.7041C24.1153 25.2923 23.8212 26.0409 23.8212 26.95C23.8212 27.859 24.1153 28.6076 24.7035 29.1958L34.0077 38.5L24.7035 47.8041C24.1153 48.3923 23.8212 49.1409 23.8212 50.05C23.8212 50.959 24.1153 51.7076 24.7035 52.2958C25.2917 52.884 26.0403 53.1781 26.9493 53.1781C27.8584 53.1781 28.607 52.884 29.1952 52.2958L38.4993 42.9916ZM38.4993 70.5833C34.0612 70.5833 29.8903 69.7406 25.9868 68.0551C22.0834 66.3697 18.6879 64.0843 15.8004 61.1989C12.9129 58.3114 10.6275 54.9159 8.94418 51.0125C7.26088 47.109 6.41815 42.9382 6.41602 38.5C6.41602 34.0618 7.25874 29.8909 8.94418 25.9875C10.6296 22.084 12.915 18.6885 15.8004 15.801C18.6879 12.9135 22.0834 10.6281 25.9868 8.94479C29.8903 7.26149 34.0612 6.41876 38.4993 6.41663C42.9375 6.41663 47.1084 7.25935 51.0118 8.94479C54.9153 10.6302 58.3108 12.9156 61.1983 15.801C64.0858 18.6885 66.3723 22.084 68.0577 25.9875C69.7432 29.8909 70.5848 34.0618 70.5827 38.5C70.5827 42.9382 69.74 47.109 68.0545 51.0125C66.3691 54.9159 64.0837 58.3114 61.1983 61.1989C58.3108 64.0864 54.9153 66.3729 51.0118 68.0583C47.1084 69.7438 42.9375 70.5854 38.4993 70.5833Z" fill="#A2ACFF"/>
</svg>
