<svg width="40" height="42" viewBox="0 0 40 42" fill="none" xmlns="http://www.w3.org/2000/svg">
<path d="M17.825 32.55L20 34.5L22.175 32.55C24.7 30.275 26.7875 28.3125 28.4375 26.6625C30.0875 25.0125 31.4 23.531 32.375 22.218C33.349 20.906 34.03 19.7 34.418 18.6C34.806 17.5 35 16.375 35 15.225C35 12.875 34.2125 10.9125 32.6375 9.3375C31.0625 7.7625 29.1 6.975 26.75 6.975C25.45 6.975 24.2125 7.25 23.0375 7.8C21.8625 8.35 20.85 9.125 20 10.125C19.15 9.125 18.1375 8.35 16.9625 7.8C15.7875 7.25 14.55 6.975 13.25 6.975C10.9 6.975 8.9375 7.7625 7.3625 9.3375C5.7875 10.9125 5 12.875 5 15.225C5.001 16.375 5.195 17.5 5.582 18.6C5.969 19.7 6.65 20.906 7.625 22.218C8.6 23.531 9.9125 25.0125 11.5625 26.6625C13.2125 28.3125 15.3 30.275 17.825 32.55Z" fill="#F44444"/>
</svg>
