<svg width="40" height="42" viewBox="0 0 40 42" fill="none" xmlns="http://www.w3.org/2000/svg">
<rect width="40" height="42" fill="#737373"/>
<path d="M-5359 -2253C-5359 -2363.46 -5269.46 -2453 -5159 -2453H3541C3651.46 -2453 3741 -2363.46 3741 -2253V4668C3741 4778.46 3651.46 4868 3541 4868H-5159C-5269.46 4868 -5359 4778.46 -5359 4668V-2253Z" fill="#7C7C7C"/>
<g clip-path="url(#clip0_1_3)">
<rect width="1440" height="1570" transform="translate(-1171 -846)" fill="white"/>
<mask id="path-4-inside-1_1_3" fill="white">
<path d="M17.825 32.5501L20 34.5001L22.175 32.5501C24.7 30.2751 26.7875 28.3126 28.4375 26.6626C30.0875 25.0126 31.4 23.5311 32.375 22.2181C33.349 20.9061 34.03 19.7001 34.418 18.6001C34.806 17.5001 35 16.3751 35 15.2251C35 12.8751 34.2125 10.9126 32.6375 9.3376C31.0625 7.7626 29.1 6.9751 26.75 6.9751C25.45 6.9751 24.2125 7.2501 23.0375 7.8001C21.8625 8.3501 20.85 9.1251 20 10.1251C19.15 9.1251 18.1375 8.3501 16.9625 7.8001C15.7875 7.2501 14.55 6.9751 13.25 6.9751C10.9 6.9751 8.9375 7.7626 7.3625 9.3376C5.7875 10.9126 5 12.8751 5 15.2251C5.001 16.3751 5.195 17.5001 5.582 18.6001C5.969 19.7001 6.65 20.9061 7.625 22.2181C8.6 23.5311 9.9125 25.0126 11.5625 26.6626C13.2125 28.3126 15.3 30.2751 17.825 32.5501Z"/>
</mask>
<path d="M17.825 32.5501L20 34.5001L22.175 32.5501C24.7 30.2751 26.7875 28.3126 28.4375 26.6626C30.0875 25.0126 31.4 23.5311 32.375 22.2181C33.349 20.9061 34.03 19.7001 34.418 18.6001C34.806 17.5001 35 16.3751 35 15.2251C35 12.8751 34.2125 10.9126 32.6375 9.3376C31.0625 7.7626 29.1 6.9751 26.75 6.9751C25.45 6.9751 24.2125 7.2501 23.0375 7.8001C21.8625 8.3501 20.85 9.1251 20 10.1251C19.15 9.1251 18.1375 8.3501 16.9625 7.8001C15.7875 7.2501 14.55 6.9751 13.25 6.9751C10.9 6.9751 8.9375 7.7626 7.3625 9.3376C5.7875 10.9126 5 12.8751 5 15.2251C5.001 16.3751 5.195 17.5001 5.582 18.6001C5.969 19.7001 6.65 20.9061 7.625 22.2181C8.6 23.5311 9.9125 25.0126 11.5625 26.6626C13.2125 28.3126 15.3 30.2751 17.825 32.5501Z" stroke="#171717" stroke-width="2" mask="url(#path-4-inside-1_1_3)"/>
</g>
<path d="M-5159 -2452H3541V-2454H-5159V-2452ZM3740 -2253V4668H3742V-2253H3740ZM3541 4867H-5159V4869H3541V4867ZM-5358 4668V-2253H-5360V4668H-5358ZM-5159 4867C-5268.9 4867 -5358 4777.9 -5358 4668H-5360C-5360 4779.01 -5270.01 4869 -5159 4869V4867ZM3740 4668C3740 4777.9 3650.9 4867 3541 4867V4869C3652.01 4869 3742 4779.01 3742 4668H3740ZM3541 -2452C3650.9 -2452 3740 -2362.9 3740 -2253H3742C3742 -2364.01 3652.01 -2454 3541 -2454V-2452ZM-5159 -2454C-5270.01 -2454 -5360 -2364.01 -5360 -2253H-5358C-5358 -2362.9 -5268.9 -2452 -5159 -2452V-2454Z" fill="white" fill-opacity="0.1"/>
<defs>
<clipPath id="clip0_1_3">
<rect width="1440" height="1570" fill="white" transform="translate(-1171 -846)"/>
</clipPath>
</defs>
</svg>
