<svg width="42" height="42" viewBox="0 0 42 42" fill="none" xmlns="http://www.w3.org/2000/svg">
<rect x="0.25" y="0.250114" width="41.5" height="41.5" rx="9.75" fill="white"/>
<path d="M21 30.0001L19.55 28.7001C17.8667 27.1835 16.475 25.8751 15.375 24.7751C14.275 23.6751 13.4 22.6875 12.75 21.8121C12.1 20.9375 11.646 20.1334 11.388 19.4001C11.13 18.6668 11.0007 17.9168 11 17.1501C11 15.5834 11.525 14.2751 12.575 13.2251C13.625 12.1751 14.9333 11.6501 16.5 11.6501C17.3667 11.6501 18.1917 11.8334 18.975 12.2001C19.7583 12.5668 20.4333 13.0834 21 13.7501C21.5667 13.0834 22.2417 12.5668 23.025 12.2001C23.8083 11.8334 24.6333 11.6501 25.5 11.6501C27.0667 11.6501 28.375 12.1751 29.425 13.2251C30.475 14.2751 31 15.5834 31 17.1501C31 17.9168 30.8707 18.6668 30.612 19.4001C30.3533 20.1334 29.8993 20.9375 29.25 21.8121C28.6 22.6875 27.725 23.6751 26.625 24.7751C25.525 25.8751 24.1333 27.1835 22.45 28.7001L21 30.0001Z" fill="#171717"/>
<rect x="0.25" y="0.250114" width="41.5" height="41.5" rx="9.75" stroke="" stroke-width="0.5"/>
</svg>
