<svg width="42" height="42" viewBox="0 0 42 42" fill="none" xmlns="http://www.w3.org/2000/svg">
<rect x="0.25" y="0.250114" width="41.5" height="41.5" rx="9.75" fill="white"/>
<path fill-rule="evenodd" clip-rule="evenodd" d="M18.3135 14.3446C17.805 15.05 17.625 15.9309 17.625 16.5001V17.6251H24.375V16.5001C24.375 15.9297 24.195 15.05 23.6876 14.3446C23.2207 13.6966 22.4333 13.1251 21 13.1251C19.5667 13.1251 18.7793 13.6966 18.3135 14.3446ZM26.625 17.6251V16.5001C26.625 15.5697 26.355 14.2006 25.5135 13.0306C24.6292 11.8032 23.1667 10.8751 21 10.8751C18.8333 10.8751 17.3707 11.8032 16.4865 13.0306C15.645 14.2006 15.375 15.5697 15.375 16.5001V17.6251H10.875C10.5766 17.6251 10.2905 17.7436 10.0795 17.9546C9.86853 18.1656 9.75 18.4517 9.75 18.7501C9.75 19.0485 9.86853 19.3346 10.0795 19.5456C10.2905 19.7566 10.5766 19.8751 10.875 19.8751H10.9819L12.0056 30.1126C12.0335 30.3901 12.1635 30.6474 12.3703 30.8344C12.5772 31.0215 12.8461 31.1251 13.125 31.1251H28.875C29.1539 31.1251 29.4228 31.0215 29.6297 30.8344C29.8365 30.6474 29.9665 30.3901 29.9944 30.1126L31.0181 19.8751H31.125C31.4234 19.8751 31.7095 19.7566 31.9205 19.5456C32.1315 19.3346 32.25 19.0485 32.25 18.7501C32.25 18.4517 32.1315 18.1656 31.9205 17.9546C31.7095 17.7436 31.4234 17.6251 31.125 17.6251H26.625ZM17.625 23.2501C17.625 22.9517 17.5065 22.6656 17.2955 22.4546C17.0845 22.2436 16.7984 22.1251 16.5 22.1251C16.2016 22.1251 15.9155 22.2436 15.7045 22.4546C15.4935 22.6656 15.375 22.9517 15.375 23.2501V25.5001C15.375 25.7985 15.4935 26.0846 15.7045 26.2956C15.9155 26.5066 16.2016 26.6251 16.5 26.6251C16.7984 26.6251 17.0845 26.5066 17.2955 26.2956C17.5065 26.0846 17.625 25.7985 17.625 25.5001V23.2501ZM22.125 23.2501C22.125 22.9517 22.0065 22.6656 21.7955 22.4546C21.5845 22.2436 21.2984 22.1251 21 22.1251C20.7016 22.1251 20.4155 22.2436 20.2045 22.4546C19.9935 22.6656 19.875 22.9517 19.875 23.2501V25.5001C19.875 25.7985 19.9935 26.0846 20.2045 26.2956C20.4155 26.5066 20.7016 26.6251 21 26.6251C21.2984 26.6251 21.5845 26.5066 21.7955 26.2956C22.0065 26.0846 22.125 25.7985 22.125 25.5001V23.2501ZM26.625 23.2501C26.625 22.9517 26.5065 22.6656 26.2955 22.4546C26.0845 22.2436 25.7984 22.1251 25.5 22.1251C25.2016 22.1251 24.9155 22.2436 24.7045 22.4546C24.4935 22.6656 24.375 22.9517 24.375 23.2501V25.5001C24.375 25.7985 24.4935 26.0846 24.7045 26.2956C24.9155 26.5066 25.2016 26.6251 25.5 26.6251C25.7984 26.6251 26.0845 26.5066 26.2955 26.2956C26.5065 26.0846 26.625 25.7985 26.625 25.5001V23.2501Z" fill="#171717"/>
<rect x="0.25" y="0.250114" width="41.5" height="41.5" rx="9.75" stroke="" stroke-width="0.5"/>
</svg>
