<svg width="49" height="40" viewBox="0 0 49 40" fill="none" xmlns="http://www.w3.org/2000/svg">
<g clip-path="url(#clip0_404_20302)">
<path d="M2.8175 15.125H46.1825C47.7367 15.125 49 13.8682 49 12.3219C49 11.7658 48.8316 11.225 48.5253 10.768L42.7372 2.13008C42.0558 1.10938 40.915 0.5 39.6823 0.5H9.31766C8.09266 0.5 6.94422 1.10938 6.26281 2.13008L0.474687 10.7604C0.168437 11.225 0 11.7658 0 12.3143C0 13.8682 1.26328 15.125 2.8175 15.125ZM4.9 17.5625V35.8438C4.9 37.8623 6.54609 39.5 8.575 39.5H25.725C27.7539 39.5 29.4 37.8623 29.4 35.8438V17.5625H24.5V29.75H9.8V17.5625H4.9ZM39.2 17.5625V37.0625C39.2 38.4107 40.2948 39.5 41.65 39.5C43.0052 39.5 44.1 38.4107 44.1 37.0625V17.5625H39.2Z" fill="#8F8F8F"/>
</g>
<defs>
<clipPath id="clip0_404_20302">
<rect width="49" height="39" fill="white" transform="translate(0 0.5)"/>
</clipPath>
</defs>
</svg>
