<svg width="30" height="31" viewBox="-4 -2.5 30 31" fill="none" xmlns="http://www.w3.org/2000/svg">
<path d="M1 21.75C1 22.413 1.26339 23.0489 1.73223 23.5178C2.20107 23.9866 2.83696 24.25 3.5 24.25C4.16304 24.25 4.79893 23.9866 5.26777 23.5178C5.73661 23.0489 6 22.413 6 21.75C6 21.087 5.73661 20.4511 5.26777 19.9822C4.79893 19.5134 4.16304 19.25 3.5 19.25C2.83696 19.25 2.20107 19.5134 1.73223 19.9822C1.26339 20.4511 1 21.087 1 21.75ZM14.75 21.75C14.75 22.413 15.0134 23.0489 15.4822 23.5178C15.9511 23.9866 16.587 24.25 17.25 24.25C17.913 24.25 18.5489 23.9866 19.0178 23.5178C19.4866 23.0489 19.75 22.413 19.75 21.75C19.75 21.087 19.4866 20.4511 19.0178 19.9822C18.5489 19.5134 17.913 19.25 17.25 19.25C16.587 19.25 15.9511 19.5134 15.4822 19.9822C15.0134 20.4511 14.75 21.087 14.75 21.75Z" stroke="#384BEA" stroke-width="2" stroke-linecap="round" stroke-linejoin="round"/>
<path d="M17.25 19.25H3.5V1.75H1" stroke="#384BEA" stroke-width="2" stroke-linecap="round" stroke-linejoin="round"/>
<path d="M3.5 4.25L21 5.5L19.75 14.25H3.5" stroke="#384BEA" stroke-width="2" stroke-linecap="round" stroke-linejoin="round"/>
</svg>
