<svg width="31" height="30" viewBox="0 0 31 30" fill="none" xmlns="http://www.w3.org/2000/svg">
<path d="M23.625 23.125L26.75 26.25M5.5 7.5H25.5M5.5 15H10.5M5.5 22.5H10.5M14.25 18.75C14.25 20.0761 14.7768 21.3479 15.7145 22.2855C16.6521 23.2232 17.9239 23.75 19.25 23.75C20.5761 23.75 21.8479 23.2232 22.7855 22.2855C23.7232 21.3479 24.25 20.0761 24.25 18.75C24.25 17.4239 23.7232 16.1521 22.7855 15.2145C21.8479 14.2768 20.5761 13.75 19.25 13.75C17.9239 13.75 16.6521 14.2768 15.7145 15.2145C14.7768 16.1521 14.25 17.4239 14.25 18.75Z" stroke="#384BEA" stroke-width="2" stroke-linecap="round" stroke-linejoin="round"/>
</svg>
