<svg width="31" height="30" viewBox="0 0 31 30" fill="none" xmlns="http://www.w3.org/2000/svg">
<path d="M24.2501 10.8875L17.5838 5.70246C16.9988 5.24734 16.2788 5.00024 15.5376 5.00024C14.7964 5.00024 14.0764 5.24734 13.4913 5.70246L6.82385 10.8875C6.42315 11.1991 6.09896 11.5981 5.87604 12.0541C5.65312 12.5102 5.53736 13.0111 5.5376 13.5187V22.5187C5.5376 23.1817 5.80099 23.8176 6.26983 24.2865C6.73867 24.7553 7.37456 25.0187 8.0376 25.0187H23.0376C23.7006 25.0187 24.3365 24.7553 24.8054 24.2865C25.2742 23.8176 25.5376 23.1817 25.5376 22.5187V13.5187C25.5376 12.49 25.0626 11.5187 24.2501 10.8875Z" stroke="#384BEA" stroke-width="2" stroke-linecap="round" stroke-linejoin="round"/>
<path d="M20.5 18.75C17.7375 20.4162 13.26 20.4162 10.5 18.75" stroke="#384BEA" stroke-width="2" stroke-linecap="round" stroke-linejoin="round"/>
</svg>
