<svg width="80" height="80" viewBox="0 0 80 80" fill="none" xmlns="http://www.w3.org/2000/svg">
<path d="M16.6666 56.6667C16.6666 58.4348 17.369 60.1305 18.6192 61.3807C19.8695 62.631 21.5652 63.3333 23.3333 63.3333C25.1014 63.3333 26.7971 62.631 28.0473 61.3807C29.2976 60.1305 30 58.4348 30 56.6667C30 54.8986 29.2976 53.2029 28.0473 51.9526C26.7971 50.7024 25.1014 50 23.3333 50C21.5652 50 19.8695 50.7024 18.6192 51.9526C17.369 53.2029 16.6666 54.8986 16.6666 56.6667ZM50 56.6667C50 58.4348 50.7023 60.1305 51.9526 61.3807C53.2028 62.631 54.8985 63.3333 56.6666 63.3333C58.4347 63.3333 60.1304 62.631 61.3807 61.3807C62.6309 60.1305 63.3333 58.4348 63.3333 56.6667C63.3333 54.8986 62.6309 53.2029 61.3807 51.9526C60.1304 50.7024 58.4347 50 56.6666 50C54.8985 50 53.2028 50.7024 51.9526 51.9526C50.7023 53.2029 50 54.8986 50 56.6667Z" stroke="#171717" stroke-width="4" stroke-linecap="round" stroke-linejoin="round"/>
<path d="M16.6666 56.6667H9.99996V43.3333M6.66663 16.6667H43.3333V56.6667M30 56.6667H50M63.3333 56.6667H70V36.6667M70 36.6667H43.3333M70 36.6667L60 20H43.3333M9.99996 30H23.3333" stroke="#171717" stroke-width="4" stroke-linecap="round" stroke-linejoin="round"/>
</svg>
