<svg width="81" height="80" viewBox="0 0 81 80" fill="none" xmlns="http://www.w3.org/2000/svg">
<path d="M17.1667 43.3333C17.1667 41.5652 17.8691 39.8695 19.1194 38.6193C20.3696 37.369 22.0653 36.6667 23.8334 36.6667H57.1667C58.9349 36.6667 60.6306 37.369 61.8808 38.6193C63.131 39.8695 63.8334 41.5652 63.8334 43.3333V63.3333C63.8334 65.1014 63.131 66.7971 61.8808 68.0474C60.6306 69.2976 58.9349 70 57.1667 70H23.8334C22.0653 70 20.3696 69.2976 19.1194 68.0474C17.8691 66.7971 17.1667 65.1014 17.1667 63.3333V43.3333Z" stroke="#171717" stroke-width="4" stroke-linecap="round" stroke-linejoin="round"/>
<path d="M27.1667 36.6667V23.3333C27.1667 19.7971 28.5715 16.4057 31.072 13.9052C33.5725 11.4048 36.9639 10 40.5001 10C44.0363 10 47.4277 11.4048 49.9282 13.9052C52.4287 16.4057 53.8334 19.7971 53.8334 23.3333V36.6667M37.1667 53.3333C37.1667 54.2174 37.5179 55.0652 38.1431 55.6904C38.7682 56.3155 39.616 56.6667 40.5001 56.6667C41.3841 56.6667 42.232 56.3155 42.8571 55.6904C43.4822 55.0652 43.8334 54.2174 43.8334 53.3333C43.8334 52.4493 43.4822 51.6014 42.8571 50.9763C42.232 50.3512 41.3841 50 40.5001 50C39.616 50 38.7682 50.3512 38.1431 50.9763C37.5179 51.6014 37.1667 52.4493 37.1667 53.3333Z" stroke="#171717" stroke-width="4" stroke-linecap="round" stroke-linejoin="round"/>
</svg>
