<svg width="80" height="80" viewBox="0 0 80 80" fill="none" xmlns="http://www.w3.org/2000/svg">
<path d="M30 40C30 42.6522 31.0536 45.1957 32.9289 47.0711C34.8043 48.9464 37.3478 50 40 50C42.6522 50 45.1957 48.9464 47.0711 47.0711C48.9464 45.1957 50 42.6522 50 40C50 37.3478 48.9464 34.8043 47.0711 32.9289C45.1957 31.0536 42.6522 30 40 30C37.3478 30 34.8043 31.0536 32.9289 32.9289C31.0536 34.8043 30 37.3478 30 40Z" stroke="#171717" stroke-width="4" stroke-linecap="round" stroke-linejoin="round"/>
<path d="M60 40H60.0333M20 40H20.0333M10 26.6667C10 24.8986 10.7024 23.2029 11.9526 21.9526C13.2029 20.7024 14.8986 20 16.6667 20H63.3333C65.1014 20 66.7971 20.7024 68.0474 21.9526C69.2976 23.2029 70 24.8986 70 26.6667V53.3333C70 55.1014 69.2976 56.7971 68.0474 58.0474C66.7971 59.2976 65.1014 60 63.3333 60H16.6667C14.8986 60 13.2029 59.2976 11.9526 58.0474C10.7024 56.7971 10 55.1014 10 53.3333V26.6667Z" stroke="#171717" stroke-width="4" stroke-linecap="round" stroke-linejoin="round"/>
</svg>
