<svg width="24" height="24" viewBox="0 0 24 24" fill="none" xmlns="http://www.w3.org/2000/svg">
<path d="M18.9 20.3001L13.3 14.7001C12.8 15.1001 12.225 15.4168 11.575 15.6501C10.925 15.8834 10.2333 16.0001 9.5 16.0001C7.68333 16.0001 6.146 15.3708 4.888 14.1121C3.63 12.8534 3.00067 11.3161 3 9.50011C3 7.68345 3.62933 6.14611 4.888 4.88811C6.14667 3.63011 7.684 3.00078 9.5 3.00011C11.3167 3.00011 12.854 3.62945 14.112 4.88811C15.37 6.14678 15.9993 7.68411 16 9.50011C16 10.2334 15.8833 10.9251 15.65 11.5751C15.4167 12.2251 15.1 12.8001 14.7 13.3001L20.325 18.9251C20.5083 19.1084 20.6 19.3334 20.6 19.6001C20.6 19.8668 20.5 20.1001 20.3 20.3001C20.1167 20.4834 19.8833 20.5751 19.6 20.5751C19.3167 20.5751 19.0833 20.4834 18.9 20.3001ZM9.5 14.0001C10.75 14.0001 11.8127 13.5624 12.688 12.6871C13.5633 11.8118 14.0007 10.7494 14 9.50011C14 8.25011 13.5623 7.18745 12.687 6.31211C11.8117 5.43678 10.7493 4.99945 9.5 5.00011C8.25 5.00011 7.18733 5.43778 6.312 6.31311C5.43667 7.18845 4.99933 8.25078 5 9.50011C5 10.7501 5.43767 11.8128 6.313 12.6881C7.18833 13.5634 8.25067 14.0008 9.5 14.0001Z" fill="#8F8F8F"/>
</svg>
