<svg width="40" height="40" viewBox="0 0 40 40" fill="none" xmlns="http://www.w3.org/2000/svg">

<path d="M27.0488 12.9101C26.132 11.984 25.04 11.2497 23.8365 10.7501C22.6329 10.2505 21.3419 9.99552 20.0388 10.0001C14.5788 10.0001 10.1288 14.4501 10.1288 19.9101C10.1288 21.6601 10.5888 23.3601 11.4488 24.8601L10.0488 30.0001L15.2988 28.6201C16.7488 29.4101 18.3788 29.8301 20.0388 29.8301C25.4988 29.8301 29.9488 25.3801 29.9488 19.9201C29.9488 17.2701 28.9188 14.7801 27.0488 12.9101ZM20.0388 28.1501C18.5588 28.1501 17.1088 27.7501 15.8388 27.0001L15.5388 26.8201L12.4188 27.6401L13.2488 24.6001L13.0488 24.2901C12.2266 22.977 11.79 21.4593 11.7888 19.9101C11.7888 15.3701 15.4888 11.6701 20.0288 11.6701C22.2288 11.6701 24.2988 12.5301 25.8488 14.0901C26.6163 14.854 27.2245 15.7627 27.6382 16.7635C28.0519 17.7642 28.2629 18.8372 28.2588 19.9201C28.2788 24.4601 24.5788 28.1501 20.0388 28.1501ZM24.5588 21.9901C24.3088 21.8701 23.0888 21.2701 22.8688 21.1801C22.6388 21.1001 22.4788 21.0601 22.3088 21.3001C22.1388 21.5501 21.6688 22.1101 21.5288 22.2701C21.3888 22.4401 21.2388 22.4601 20.9888 22.3301C20.7388 22.2101 19.9388 21.9401 18.9988 21.1001C18.2588 20.4401 17.7688 19.6301 17.6188 19.3801C17.4788 19.1301 17.5988 19.0001 17.7288 18.8701C17.8388 18.7601 17.9788 18.5801 18.0988 18.4401C18.2188 18.3001 18.2688 18.1901 18.3488 18.0301C18.4288 17.8601 18.3888 17.7201 18.3288 17.6001C18.2688 17.4801 17.7688 16.2601 17.5688 15.7601C17.3688 15.2801 17.1588 15.3401 17.0088 15.3301H16.5288C16.3588 15.3301 16.0988 15.3901 15.8688 15.6401C15.6488 15.8901 15.0088 16.4901 15.0088 17.7101C15.0088 18.9301 15.8988 20.1101 16.0188 20.2701C16.1388 20.4401 17.7688 22.9401 20.2488 24.0101C20.8388 24.2701 21.2988 24.4201 21.6588 24.5301C22.2488 24.7201 22.7888 24.6901 23.2188 24.6301C23.6988 24.5601 24.6888 24.0301 24.8888 23.4501C25.0988 22.8701 25.0988 22.3801 25.0288 22.2701C24.9588 22.1601 24.8088 22.1101 24.5588 21.9901Z" fill="white"/>
</svg>
