<svg width="40" height="40" viewBox="0 0 40 40" fill="none" xmlns="http://www.w3.org/2000/svg">
<circle cx="20" cy="20" r="20" fill="white"/>
<path d="M27.5522 10.997C27.3115 11.0145 27.0751 11.071 26.8525 11.1642H26.8495C26.6357 11.249 25.6195 11.6765 24.0745 12.3245L18.538 14.6562C14.5652 16.3287 10.66 17.9757 10.66 17.9757L10.7065 17.9577C10.7065 17.9577 10.4372 18.0462 10.156 18.239C9.98222 18.3495 9.8327 18.4942 9.71647 18.6642C9.57847 18.8667 9.46747 19.1765 9.50872 19.4967C9.57622 20.0382 9.92722 20.363 10.1792 20.5422C10.4342 20.7237 10.6772 20.8085 10.6772 20.8085H10.6832L14.3455 22.0422C14.5097 22.5695 15.4615 25.6985 15.6902 26.4192C15.8252 26.8497 15.9565 27.119 16.1207 27.3245C16.2002 27.4295 16.2932 27.5172 16.405 27.5877C16.4631 27.6215 16.525 27.6482 16.5895 27.6672L16.552 27.6582C16.5632 27.6612 16.5722 27.6702 16.5805 27.6732C16.6105 27.6815 16.6307 27.6845 16.669 27.6905C17.2487 27.866 17.7145 27.506 17.7145 27.506L17.7407 27.485L19.903 25.5162L23.527 28.2965L23.6095 28.3317C24.3647 28.6632 25.1297 28.4787 25.534 28.1532C25.9412 27.8255 26.0995 27.4062 26.0995 27.4062L26.1257 27.3387L28.9262 12.992C29.0057 12.638 29.026 12.3065 28.9382 11.9847C28.8477 11.6591 28.6388 11.379 28.3525 11.1995C28.112 11.0533 27.8332 10.9828 27.5522 10.997ZM27.4765 12.5345C27.4735 12.5817 27.4825 12.5765 27.4615 12.6672V12.6755L24.6872 26.873C24.6752 26.8932 24.655 26.9375 24.5995 26.9817C24.541 27.0282 24.4945 27.0575 24.2507 26.9607L19.8182 23.5625L17.1407 26.003L17.7032 22.4105L24.9452 15.6605C25.2437 15.383 25.144 15.3245 25.144 15.3245C25.165 14.984 24.6932 15.2247 24.6932 15.2247L15.5612 20.882L15.5582 20.867L11.1812 19.3932V19.3902L11.17 19.388C11.1776 19.3854 11.1852 19.3824 11.1925 19.379L11.2165 19.367L11.2397 19.3587C11.2397 19.3587 15.148 17.7117 19.1207 16.0392C21.1097 15.2015 23.1137 14.3577 24.655 13.7067C25.569 13.322 26.484 12.9395 27.4 12.5592C27.4615 12.5352 27.4322 12.5345 27.4765 12.5345Z" fill="#525252"/>
</svg>
