<svg width="40" height="40" viewBox="0 0 40 40" fill="none" xmlns="http://www.w3.org/2000/svg">
<path d="M27.5525 10.997C27.3117 11.0145 27.0754 11.071 26.8527 11.1643H26.8497C26.636 11.249 25.6197 11.6765 24.0747 12.3245L18.5382 14.6563C14.5655 16.3288 10.6602 17.9758 10.6602 17.9758L10.7067 17.9578C10.7067 17.9578 10.4375 18.0463 10.1562 18.239C9.98246 18.3496 9.83295 18.4942 9.71672 18.6643C9.57872 18.8668 9.46772 19.1765 9.50897 19.4968C9.57647 20.0383 9.92747 20.363 10.1795 20.5423C10.4345 20.7238 10.6775 20.8085 10.6775 20.8085H10.6835L14.3457 22.0423C14.51 22.5695 15.4617 25.6985 15.6905 26.4193C15.8255 26.8498 15.9567 27.119 16.121 27.3245C16.2005 27.4295 16.2935 27.5173 16.4052 27.5878C16.4633 27.6215 16.5253 27.6482 16.5897 27.6673L16.5522 27.6583C16.5635 27.6613 16.5725 27.6703 16.5807 27.6733C16.6107 27.6815 16.631 27.6845 16.6692 27.6905C17.249 27.866 17.7147 27.506 17.7147 27.506L17.741 27.485L19.9032 25.5163L23.5272 28.2965L23.6097 28.3318C24.365 28.6633 25.13 28.4788 25.5342 28.1533C25.9415 27.8255 26.0997 27.4063 26.0997 27.4063L26.126 27.3388L28.9265 12.992C29.006 12.638 29.0262 12.3065 28.9385 11.9848C28.848 11.6591 28.639 11.3791 28.3527 11.1995C28.1123 11.0533 27.8335 10.9828 27.5525 10.997ZM27.4767 12.5345C27.4737 12.5818 27.4827 12.5765 27.4617 12.6673V12.6755L24.6875 26.873C24.6755 26.8933 24.6552 26.9375 24.5997 26.9818C24.5412 27.0283 24.4947 27.0575 24.251 26.9608L19.8185 23.5625L17.141 26.003L17.7035 22.4105L24.9455 15.6605C25.244 15.383 25.1442 15.3245 25.1442 15.3245C25.1652 14.984 24.6935 15.2248 24.6935 15.2248L15.5615 20.882L15.5585 20.867L11.1815 19.3933V19.3903L11.1702 19.388C11.1779 19.3855 11.1854 19.3824 11.1927 19.379L11.2167 19.367L11.24 19.3588C11.24 19.3588 15.1482 17.7118 19.121 16.0393C21.11 15.2015 23.114 14.3578 24.6552 13.7068C25.5693 13.322 26.4843 12.9395 27.4002 12.5593C27.4617 12.5353 27.4325 12.5345 27.4767 12.5345Z" fill="#8F8F8F"/>
</svg>
