<svg width="22" height="21" viewBox="0 0 22 21" fill="none" xmlns="http://www.w3.org/2000/svg">
<g clip-path="url(#clip0_201_8845)">
<path d="M8.93889 8.98883C8.78333 9.14439 8.59537 9.21905 8.375 9.21283C8.15463 9.20661 7.96667 9.12546 7.81111 8.96939L5.61389 6.77217L5.61389 15.4444C5.61389 15.6648 5.53922 15.8496 5.38989 15.9989C5.24056 16.1483 5.05596 16.2227 4.83611 16.2222C4.61574 16.2222 4.43089 16.1475 4.28156 15.9982C4.13222 15.8488 4.05781 15.6642 4.05833 15.4444V6.77217L1.84167 8.98883C1.68611 9.14439 1.50126 9.22217 1.28711 9.22217C1.07296 9.22217 0.88837 9.14439 0.733333 8.98883C0.577778 8.83328 0.5 8.64843 0.5 8.43428C0.5 8.22013 0.577778 8.03554 0.733333 7.8805L4.29167 4.32217C4.36944 4.24439 4.4537 4.18917 4.54444 4.1565C4.63519 4.12383 4.73241 4.10776 4.83611 4.10828C4.93981 4.10828 5.03704 4.12461 5.12778 4.15728C5.21852 4.18994 5.30278 4.24491 5.38056 4.32217L8.95833 7.89994C9.10093 8.04254 9.17222 8.22065 9.17222 8.43428C9.17222 8.64791 9.09444 8.83276 8.93889 8.98883Z" fill="#171717"/>
<path d="M12.401 11.7889C12.5565 11.6333 12.7445 11.5587 12.9648 11.5649C13.1852 11.5711 13.3732 11.6522 13.5287 11.8083L15.726 14.0055V5.33332C15.726 5.11295 15.8006 4.9281 15.95 4.77877C16.0993 4.62943 16.2839 4.55503 16.5037 4.55554C16.7241 4.55554 16.909 4.63021 17.0583 4.77954C17.2076 4.92888 17.282 5.11347 17.2815 5.33332V14.0055L19.4982 11.7889C19.6537 11.6333 19.8386 11.5555 20.0527 11.5555C20.2669 11.5555 20.4515 11.6333 20.6065 11.7889C20.7621 11.9444 20.8398 12.1293 20.8398 12.3434C20.8398 12.5576 20.7621 12.7422 20.6065 12.8972L17.0482 16.4555C16.9704 16.5333 16.8861 16.5885 16.7954 16.6212C16.7047 16.6539 16.6074 16.67 16.5037 16.6694C16.4 16.6694 16.3028 16.6531 16.2121 16.6204C16.1213 16.5878 16.0371 16.5328 15.9593 16.4555L12.3815 12.8778C12.2389 12.7352 12.1676 12.5571 12.1676 12.3434C12.1676 12.1298 12.2454 11.945 12.401 11.7889Z" fill="#171717"/>
</g>
<defs>
<clipPath id="clip0_201_8845">
<rect width="21" height="21" fill="white" transform="matrix(0 -1 1 0 0.5 21)"/>
</clipPath>
</defs>
</svg>
