<svg width="101" height="100" viewBox="0 0 101 100" fill="none" xmlns="http://www.w3.org/2000/svg">
<path d="M44.6663 57.5L35.708 48.5417C34.9441 47.7778 33.9719 47.3959 32.7913 47.3959C31.6108 47.3959 30.6386 47.7778 29.8747 48.5417C29.1108 49.3056 28.7288 50.2778 28.7288 51.4584C28.7288 52.6389 29.1108 53.6112 29.8747 54.375L41.7497 66.25C42.583 67.0834 43.5552 67.5 44.6663 67.5C45.7775 67.5 46.7497 67.0834 47.583 66.25L71.1247 42.7084C71.8886 41.9445 72.2705 40.9723 72.2705 39.7917C72.2705 38.6112 71.8886 37.6389 71.1247 36.875C70.3608 36.1112 69.3886 35.7292 68.208 35.7292C67.0275 35.7292 66.0552 36.1112 65.2913 36.875L44.6663 57.5ZM50.4997 91.6667C44.7358 91.6667 39.3191 90.5723 34.2497 88.3834C29.1802 86.1945 24.7705 83.2264 21.0205 79.4792C17.2705 75.7292 14.3025 71.3195 12.1163 66.25C9.93023 61.1806 8.83579 55.7639 8.83301 50C8.83301 44.2362 9.92745 38.8195 12.1163 33.75C14.3052 28.6806 17.2733 24.2709 21.0205 20.5209C24.7705 16.7709 29.1802 13.8028 34.2497 11.6167C39.3191 9.4306 44.7358 8.33615 50.4997 8.33337C56.2636 8.33337 61.6802 9.42782 66.7497 11.6167C71.8191 13.8056 76.2288 16.7737 79.9788 20.5209C83.7288 24.2709 86.6983 28.6806 88.8872 33.75C91.0761 38.8195 92.1691 44.2362 92.1663 50C92.1663 55.7639 91.0719 61.1806 88.883 66.25C86.6941 71.3195 83.7261 75.7292 79.9788 79.4792C76.2288 83.2292 71.8191 86.1987 66.7497 88.3875C61.6802 90.5764 56.2636 91.6695 50.4997 91.6667Z" fill="#171717"/>
</svg>
