<svg width="151" height="72" viewBox="0 0 151 72" fill="none" xmlns="http://www.w3.org/2000/svg">
<path d="M0.32 3.30161C0.78 2.91161 1.33 3.01161 1.86 3.01161C50.65 3.03161 99.45 3.0616 148.24 3.0816C150.71 3.0816 150.86 3.26161 150.72 5.71161C150.63 7.19161 150.62 8.68161 150.62 10.1716C150.61 27.2116 150.61 44.2516 150.61 61.2916C150.61 61.3516 150.61 61.4116 150.61 61.4716C150.62 65.8916 150.62 65.8916 146.1 65.8916C138.35 65.8916 130.61 65.8916 122.86 65.8916C122.06 65.8916 121.19 66.1016 121.16 64.7316C121.12 63.3216 121.94 63.4016 122.88 63.4016C130.51 63.4116 138.13 63.3516 145.76 63.4416C147.52 63.4616 148.06 63.0616 148.05 61.2016C147.98 43.5716 148.01 25.9316 148.01 8.2916C148.01 5.8416 148.01 5.8316 145.66 5.8316C98.06 5.8316 50.45 5.84161 2.85 5.85161C2.52 6.47161 2.68 7.14161 2.68 7.78161C2.67 25.1616 2.67 42.5416 2.67 59.9316C2.67 60.7016 2.6 61.4816 2.64 62.2516C2.67 63.0916 2.36 63.5116 1.56 63.5316C0.8 63.5516 0.339999 63.1116 0.199999 62.3816C0.129999 62.0316 0.170001 61.6716 0.170001 61.3116C0.170001 42.4416 0.170001 23.5716 0.170001 4.70161C0.160001 4.23161 0.0500002 3.74161 0.32 3.30161Z" fill="#184D00"/>
<path d="M119.18 21.2216C122.28 21.2216 125.38 21.2516 128.47 21.2116C129.67 21.1916 130.07 21.6516 129.87 22.8216C129.67 24.0516 129.58 25.3016 129.45 26.5516C129.4 27.0216 129.21 27.3216 128.68 27.3316C128.14 27.3416 128.03 26.9916 127.89 26.5616C127 23.7516 126.99 23.7216 123.99 23.6616C122.26 23.6216 120.54 23.7116 118.81 23.7116C117.98 23.7116 117.65 24.0516 117.66 24.8916C117.69 27.3316 117.7 29.7816 117.65 32.2216C117.63 33.2616 118.13 33.6016 119.04 33.6016C120.29 33.6116 121.54 33.6216 122.79 33.6116C124.3 33.6016 125.7 33.4516 125.62 31.3816C125.6 30.8816 125.88 30.4716 126.51 30.4916C127.33 30.5116 127.26 31.1016 127.26 31.6316C127.27 33.7716 127.27 35.9216 127.26 38.0616C127.26 38.5216 127.34 39.0416 126.63 39.1216C125.94 39.2016 125.73 38.8216 125.57 38.2316C124.9 35.7416 124.73 35.6216 122.08 35.5916C117.66 35.5316 117.66 35.5316 117.66 39.9316C117.66 41.7216 117.68 43.5016 117.66 45.2916C117.65 46.1116 117.81 46.6416 118.82 46.6616C121.2 46.7016 123.58 46.7916 125.96 46.5916C127.29 46.4816 128.21 45.9816 128.31 44.4816C128.35 43.9616 128.56 43.4416 128.71 42.9316C128.88 42.3516 129.33 42.2716 129.85 42.3416C130.43 42.4216 130.43 42.8716 130.4 43.2916C130.3 44.8316 130.16 46.3816 130.07 47.9216C130.01 48.8416 129.48 49.1316 128.65 49.1316C122.69 49.1316 116.74 49.1316 110.78 49.1316C110.44 49.1316 110.01 49.2316 109.88 48.7716C109.76 48.3516 110.05 48.0716 110.38 47.9316C111.88 47.2816 111.92 46.0116 111.91 44.6416C111.88 38.2716 111.86 31.8916 111.92 25.5216C111.94 23.8516 111.42 22.9016 109.66 22.8216C109.08 22.7916 108.38 22.8016 108.48 21.8916C108.59 20.9116 109.37 21.2816 109.87 21.2816C112.99 21.2016 116.08 21.2216 119.18 21.2216Z" fill="#184D00"/>
<path d="M86.01 21.2216C89.76 21.2216 93.51 21.2616 97.26 21.2016C98.39 21.1816 98.91 21.4016 98.71 22.6816C98.48 24.0916 98.46 25.5216 98.36 26.9516C98.32 27.4816 98.18 27.8716 97.54 27.8816C96.92 27.8916 96.77 27.5116 96.63 27.0016C95.78 23.7316 95.78 23.7316 92.28 23.7316C88.81 23.7316 88.83 23.7316 88.84 27.2416C88.86 32.9516 88.86 38.6716 88.84 44.3816C88.83 46.0716 88.95 47.5516 91.24 47.3816C91.83 47.3416 92.26 47.6116 92.24 48.3316C92.22 49.1516 91.65 49.0916 91.12 49.0916C87.67 49.1016 84.22 49.0916 80.76 49.1016C80.2 49.1016 79.66 49.1016 79.66 48.3116C79.65 47.5916 80.11 47.3516 80.7 47.3816C82.67 47.4716 83.06 46.3216 83.05 44.6616C83.02 38.2316 83.03 31.8016 83.07 25.3816C83.08 24.2016 82.77 23.5816 81.47 23.7216C80.76 23.8016 80.04 23.7316 79.33 23.7316C76.01 23.7416 76.01 23.7316 75.24 26.9016C75.12 27.3816 75.06 27.8616 74.41 27.8616C73.67 27.8616 73.57 27.3516 73.53 26.7816C73.41 25.2416 73.3 23.6916 73.15 22.1616C73.04 21.0816 73.78 21.2216 74.42 21.2216C78.27 21.2216 82.14 21.2216 86.01 21.2216Z" fill="#184D00"/>
<path d="M0.32 3.30161C0.33 22.1716 0.33 41.0516 0.34 59.9216C0.34 60.6316 0.35 61.3516 0.49 62.0516C0.61 62.6416 1.18 62.9516 1.72 62.8816C2.67 62.7516 1.53 62.2416 1.81 62.0116C2.96 61.0716 2.45 59.7916 2.45 58.6716C2.48 41.9416 2.47 25.2116 2.48 8.48161C2.48 7.60161 2.34 6.6816 2.83 5.8616C2.81 17.6616 2.79 29.4516 2.78 41.2516C2.77 47.8616 2.83 54.4816 2.74 61.0916C2.72 62.7416 3.22 63.2016 4.85 63.2016C25.11 63.1516 45.37 63.1716 65.62 63.1616C66.8 63.1616 67.8 63.1416 67.58 64.8116C67.48 65.5516 67.21 65.8916 66.49 65.8916C65.66 65.8916 64.82 65.9016 63.99 65.9016C43.37 65.9016 22.76 65.8716 2.14 65.9216C0.529999 65.9216 0 65.5416 0 63.8516C0.05 44.3116 0.029999 24.7616 0.039999 5.2216C0.049999 4.5716 -0.0999998 3.89161 0.32 3.30161Z" fill="#184D00"/>
<path d="M27.65 35.5016C27.65 38.7216 27.69 41.9416 27.63 45.1516C27.61 46.3216 28.01 46.7116 29.17 46.6616C31.31 46.5816 33.46 46.6216 35.6 46.5916C37.15 46.5716 38.22 46.0116 38.32 44.2516C38.35 43.6716 38.56 43.0916 38.72 42.5116C38.86 42.0116 39.27 41.9516 39.71 41.9616C40.28 41.9816 40.4 42.3616 40.37 42.8016C40.26 44.5816 40.15 46.3716 39.98 48.1516C39.87 49.3116 38.88 49.0816 38.17 49.0816C33.11 49.1016 28.04 49.0716 22.98 49.0616C22.21 49.0616 21.43 49.0916 20.66 49.0916C20.37 49.0916 20.04 49.1216 19.91 48.7716C19.75 48.3616 19.96 48.0416 20.31 47.9016C21.95 47.2516 21.88 45.8516 21.88 44.4616C21.87 38.0816 21.84 31.7116 21.88 25.3316C21.89 23.8416 21.49 22.9116 19.81 22.9216C19.24 22.9216 18.54 22.8816 18.54 22.0116C18.54 21.0816 19.23 21.2116 19.81 21.2116C23.15 21.2016 26.48 21.2016 29.82 21.2116C30.37 21.2116 31.09 21.0116 31.1 21.9816C31.11 22.8816 30.4 22.9216 29.86 22.9116C28.17 22.8816 27.71 23.8216 27.72 25.2816C27.74 28.6816 27.73 32.0716 27.73 35.4716C27.69 35.5016 27.67 35.5016 27.65 35.5016Z" fill="#184D00"/>
<path d="M57 49.1116C55.33 49.1116 53.67 49.1216 52 49.1016C51.45 49.0916 50.75 49.2716 50.75 48.3016C50.75 47.5316 51.24 47.3716 51.79 47.4016C53.91 47.5316 54.2 46.2016 54.2 44.5416C54.19 38.2916 54.19 32.0416 54.21 25.8016C54.22 24.1216 53.89 22.8216 51.8 22.9216C51.23 22.9516 50.74 22.7516 50.74 22.0216C50.74 21.2216 51.3 21.2416 51.85 21.2416C55.3 21.2416 58.75 21.2416 62.2 21.2416C62.73 21.2416 63.31 21.1816 63.33 22.0016C63.34 22.7416 62.85 22.9516 62.29 22.9316C60.32 22.8516 59.96 23.9716 59.97 25.6516C60.02 32.0216 60.01 38.3816 59.97 44.7516C59.96 46.3516 60.3 47.4616 62.19 47.3916C62.83 47.3716 63.39 47.5716 63.33 48.4016C63.26 49.3616 62.53 49.1016 61.99 49.1016C60.33 49.1216 58.66 49.1116 57 49.1116Z" fill="#184D00"/>
<path d="M74.8696 65.6486C75.0103 66.1818 75.2329 66.5831 75.5376 66.8527C75.8423 67.1163 76.2495 67.2482 76.7593 67.2482C77.1987 67.2482 77.5298 67.1486 77.7525 66.9493C77.981 66.7501 78.0952 66.4601 78.0952 66.0792C78.0952 65.839 78.0425 65.6339 77.937 65.464C77.8374 65.2941 77.6675 65.1329 77.4273 64.9806C77.1929 64.8224 76.7886 64.6173 76.2144 64.3654C75.8921 64.2247 75.5874 64.0695 75.3003 63.8995C75.0191 63.7296 74.773 63.5392 74.562 63.3282C74.3511 63.1115 74.1841 62.8712 74.0611 62.6075C73.938 62.3439 73.8765 62.0509 73.8765 61.7286C73.8765 61.2013 74.0288 60.7443 74.3335 60.3575C74.6382 59.9708 75.0718 59.6749 75.6343 59.4698C76.2027 59.2648 76.8501 59.1622 77.5767 59.1622C78.0044 59.1622 78.4234 59.1798 78.8335 59.215C79.2437 59.2501 79.7739 59.3263 80.4243 59.4435V61.4913H79.2642C79.1294 61.1163 78.98 60.8263 78.8159 60.6212C78.6577 60.4161 78.4819 60.2755 78.2886 60.1993C78.0952 60.1173 77.8638 60.0763 77.5943 60.0763C77.2075 60.0763 76.8999 60.1642 76.6714 60.34C76.4429 60.5157 76.3286 60.7618 76.3286 61.0782C76.3286 61.3009 76.3696 61.4913 76.4517 61.6495C76.5337 61.8077 76.6802 61.963 76.8911 62.1154C77.1021 62.2618 77.5093 62.4611 78.1128 62.713C78.6636 62.9415 79.1118 63.1818 79.4575 63.4337C79.8032 63.6798 80.0669 63.9669 80.2486 64.295C80.4302 64.6173 80.521 64.9952 80.521 65.4288C80.521 65.9034 80.4331 66.3136 80.2573 66.6593C80.0816 66.9991 79.8355 67.2804 79.5191 67.5031C79.2027 67.7257 78.8218 67.8927 78.3765 68.004C77.937 68.1095 77.4507 68.1622 76.9175 68.1622C75.9507 68.1622 74.8755 68.0245 73.6919 67.7491V65.6486H74.8696Z" fill="#184D00"/>
<path d="M88.0093 66.9669C87.4937 67.4064 87.0249 67.7169 86.603 67.8986C86.1812 68.0743 85.7359 68.1622 85.2671 68.1622C84.3941 68.1622 83.7407 67.9279 83.3071 67.4591C82.8794 66.9845 82.6655 66.2697 82.6655 65.3146V60.4015H81.5669V59.795C81.9243 59.7365 82.188 59.6486 82.3579 59.5314C82.5278 59.4142 82.6597 59.2589 82.7534 59.0656C82.8472 58.8663 82.9204 58.6085 82.9732 58.2921C83.0318 57.9757 83.0757 57.5802 83.105 57.1056H85.2056V59.3029H87.7105V60.4015H85.2056V64.3654C85.2056 65.0275 85.2349 65.5167 85.2935 65.8331C85.3579 66.1495 85.4634 66.3839 85.6099 66.5363C85.7564 66.6827 85.938 66.756 86.1548 66.756C86.3189 66.756 86.4653 66.7413 86.5943 66.712C86.7232 66.6827 86.8579 66.63 86.9986 66.5538C87.145 66.4777 87.2974 66.3693 87.4556 66.2286L88.0093 66.9669Z" fill="#184D00"/>
<path d="M92.5884 68.1622C91.7271 68.1622 90.9829 68.0128 90.356 67.714C89.7349 67.4093 89.2486 66.9259 88.897 66.2638C88.5454 65.5958 88.3696 64.7491 88.3696 63.7238C88.3696 62.9386 88.478 62.2589 88.6948 61.6847C88.9116 61.1105 89.2134 60.6359 89.6001 60.2609C89.9868 59.8859 90.4468 59.6105 90.98 59.4347C91.5191 59.2531 92.1021 59.1622 92.729 59.1622C94.147 59.1622 95.2163 59.5372 95.937 60.2872C96.6577 61.0314 97.0181 62.1241 97.0181 63.5656C97.0181 64.5851 96.8394 65.4406 96.4819 66.132C96.1245 66.8175 95.6148 67.3273 94.9527 67.6613C94.2905 67.9952 93.5025 68.1622 92.5884 68.1622ZM91.0415 63.5304C91.0415 64.7726 91.1792 65.7042 91.4546 66.3253C91.7359 66.9406 92.1577 67.2482 92.7202 67.2482C93.0308 67.2482 93.2886 67.1691 93.4937 67.0109C93.7046 66.8527 93.8716 66.6241 93.9946 66.3253C94.1236 66.0265 94.2144 65.6691 94.2671 65.2531C94.3198 64.8312 94.3462 64.3595 94.3462 63.838C94.3462 62.5782 94.2056 61.6378 93.9243 61.0167C93.6489 60.3898 93.2388 60.0763 92.6939 60.0763C92.2954 60.0763 91.9761 60.2023 91.7359 60.4542C91.4956 60.7062 91.3198 61.0841 91.2085 61.588C91.0972 62.0919 91.0415 62.7394 91.0415 63.5304Z" fill="#184D00"/>
<path d="M101.852 60.5597L101.966 60.5861C102.394 60.0822 102.834 59.7189 103.285 59.4962C103.736 59.2736 104.225 59.1622 104.752 59.1622C105.11 59.1622 105.485 59.2003 105.877 59.2765V61.7023H104.287C104.187 61.3624 104.055 61.1017 103.891 60.92C103.733 60.7384 103.519 60.6476 103.25 60.6476C103.121 60.6476 102.977 60.6886 102.819 60.7706C102.667 60.8468 102.523 60.9581 102.388 61.1046C102.259 61.2452 102.166 61.3917 102.107 61.5441C102.054 61.6906 102.019 61.84 102.001 61.9923C101.984 62.1447 101.975 62.3732 101.975 62.6779V65.4816C101.975 66.0382 101.996 66.4279 102.037 66.6505C102.078 66.8732 102.16 67.049 102.283 67.1779C102.406 67.3009 102.614 67.3888 102.907 67.4415V68.0216H98.5737V67.4415C98.855 67.3654 99.0484 67.2657 99.1538 67.1427C99.2652 67.0197 99.3384 66.8527 99.3736 66.6417C99.4146 66.4308 99.4351 66.047 99.4351 65.4904V61.8781C99.4351 61.4445 99.4263 61.1251 99.4087 60.92C99.397 60.7091 99.3618 60.5421 99.3032 60.4191C99.2505 60.2902 99.1655 60.1876 99.0484 60.1115C98.937 60.0294 98.7407 59.9591 98.4595 59.9005V59.3029L100.868 59.2325H101.975L101.852 60.5597Z" fill="#184D00"/>
<path d="M114.579 66.422C113.981 67.0548 113.389 67.5031 112.803 67.7667C112.217 68.0304 111.543 68.1622 110.782 68.1622C109.417 68.1622 108.388 67.7902 107.697 67.046C107.011 66.296 106.668 65.1857 106.668 63.715C106.668 62.7657 106.844 61.9484 107.196 61.2628C107.553 60.5714 108.057 60.0499 108.708 59.6984C109.358 59.3409 110.114 59.1622 110.975 59.1622C111.508 59.1622 111.974 59.2238 112.373 59.3468C112.777 59.4698 113.123 59.6427 113.41 59.8654C113.697 60.0822 113.934 60.3458 114.122 60.6564C114.344 61.0255 114.511 61.4474 114.623 61.922C114.74 62.4083 114.801 62.9972 114.807 63.6886H109.235C109.241 64.7491 109.428 65.5314 109.797 66.0353C110.172 66.5333 110.741 66.7823 111.502 66.7823C111.948 66.7823 112.349 66.7003 112.707 66.5363C113.064 66.3663 113.451 66.0704 113.867 65.6486L114.579 66.422ZM112.206 62.7394C112.182 61.8429 112.065 61.1749 111.854 60.7355C111.643 60.296 111.303 60.0763 110.834 60.0763C110.383 60.0763 110.023 60.3048 109.753 60.7618C109.49 61.2189 109.332 61.8781 109.279 62.7394H112.206Z" fill="#184D00"/>
</svg>
