<svg width="120" height="120" viewBox="0 0 120 120" fill="none" xmlns="http://www.w3.org/2000/svg">
<path d="M53.9164 8.27586H49.6543V12.5379H53.9164V8.27586Z" fill="black"/>
<path d="M58.055 8.27586H53.793V12.5379H58.055V8.27586Z" fill="black"/>
<path d="M62.1927 8.27586H57.9307V12.5379H62.1927V8.27586Z" fill="black"/>
<path d="M66.3304 8.27586H62.0684V12.5379H66.3304V8.27586Z" fill="black"/>
<path d="M70.4681 8.27586H66.2061V12.5379H70.4681V8.27586Z" fill="black"/>
<path d="M74.6068 8.27586H70.3447V12.5379H74.6068V8.27586Z" fill="black"/>
<path d="M78.7445 8.27586H74.4824V12.5379H78.7445V8.27586Z" fill="black"/>
<path d="M49.7787 12.4138H45.5166V16.6759H49.7787V12.4138Z" fill="black"/>
<path d="M53.9164 12.4138H49.6543V16.6759H53.9164V12.4138Z" fill="black"/>
<path d="M66.3304 12.4138H62.0684V16.6759H66.3304V12.4138Z" fill="black"/>
<path d="M70.4681 12.4138H66.2061V16.6759H70.4681V12.4138Z" fill="black"/>
<path d="M74.6068 12.4138H70.3447V16.6759H74.6068V12.4138Z" fill="black"/>
<path d="M78.7445 12.4138H74.4824V16.6759H78.7445V12.4138Z" fill="black"/>
<path d="M45.641 16.5517H41.3789V20.8138H45.641V16.5517Z" fill="black"/>
<path d="M58.055 16.5517H53.793V20.8138H58.055V16.5517Z" fill="black"/>
<path d="M70.4681 16.5517H66.2061V20.8138H70.4681V16.5517Z" fill="black"/>
<path d="M74.6068 16.5517H70.3447V20.8138H74.6068V16.5517Z" fill="black"/>
<path d="M78.7445 16.5517H74.4824V20.8138H78.7445V16.5517Z" fill="black"/>
<path d="M45.641 20.6897H41.3789V24.9517H45.641V20.6897Z" fill="black"/>
<path d="M58.055 20.6897H53.793V24.9517H58.055V20.6897Z" fill="black"/>
<path d="M62.1927 20.6897H57.9307V24.9517H62.1927V20.6897Z" fill="black"/>
<path d="M70.4681 20.6897H66.2061V24.9517H70.4681V20.6897Z" fill="black"/>
<path d="M74.6068 20.6897H70.3447V24.9517H74.6068V20.6897Z" fill="black"/>
<path d="M45.641 24.8276H41.3789V29.0896H45.641V24.8276Z" fill="black"/>
<path d="M58.055 24.8276H53.793V29.0896H58.055V24.8276Z" fill="black"/>
<path d="M62.1927 24.8276H57.9307V29.0896H62.1927V24.8276Z" fill="black"/>
<path d="M66.3304 24.8276H62.0684V29.0896H66.3304V24.8276Z" fill="black"/>
<path d="M78.7445 24.8276H74.4824V29.0896H78.7445V24.8276Z" fill="black"/>
<path d="M45.641 28.9655H41.3789V33.2276H45.641V28.9655Z" fill="black"/>
<path d="M49.7787 28.9655H45.5166V33.2276H49.7787V28.9655Z" fill="black"/>
<path d="M53.9164 28.9655H49.6543V33.2276H53.9164V28.9655Z" fill="black"/>
<path d="M58.055 28.9655H53.793V33.2276H58.055V28.9655Z" fill="black"/>
<path d="M62.1927 28.9655H57.9307V33.2276H62.1927V28.9655Z" fill="black"/>
<path d="M70.4681 28.9655H66.2061V33.2276H70.4681V28.9655Z" fill="black"/>
<path d="M74.6068 28.9655H70.3447V33.2276H74.6068V28.9655Z" fill="black"/>
<path d="M45.641 33.1035H41.3789V37.3655H45.641V33.1035Z" fill="black"/>
<path d="M53.9164 33.1035H49.6543V37.3655H53.9164V33.1035Z" fill="black"/>
<path d="M62.1927 33.1035H57.9307V37.3655H62.1927V33.1035Z" fill="black"/>
<path d="M70.4681 33.1035H66.2061V37.3655H70.4681V33.1035Z" fill="black"/>
<path d="M78.7445 33.1035H74.4824V37.3655H78.7445V33.1035Z" fill="black"/>
<path d="M45.641 37.2414H41.3789V41.5035H45.641V37.2414Z" fill="black"/>
<path d="M58.055 37.2414H53.793V41.5035H58.055V37.2414Z" fill="black"/>
<path d="M62.1927 37.2414H57.9307V41.5035H62.1927V37.2414Z" fill="black"/>
<path d="M70.4681 37.2414H66.2061V41.5035H70.4681V37.2414Z" fill="black"/>
<path d="M12.5375 41.3793H8.27539V45.6414H12.5375V41.3793Z" fill="black"/>
<path d="M20.8128 41.3793H16.5508V45.6414H20.8128V41.3793Z" fill="black"/>
<path d="M24.9515 41.3793H20.6895V45.6414H24.9515V41.3793Z" fill="black"/>
<path d="M29.0892 41.3793H24.8271V45.6414H29.0892V41.3793Z" fill="black"/>
<path d="M33.2269 41.3793H28.9648V45.6414H33.2269V41.3793Z" fill="black"/>
<path d="M37.3646 41.3793H33.1025V45.6414H37.3646V41.3793Z" fill="black"/>
<path d="M66.3304 41.3793H62.0684V45.6414H66.3304V41.3793Z" fill="black"/>
<path d="M70.4681 41.3793H66.2061V45.6414H70.4681V41.3793Z" fill="black"/>
<path d="M74.6068 41.3793H70.3447V45.6414H74.6068V41.3793Z" fill="black"/>
<path d="M78.7445 41.3793H74.4824V45.6414H78.7445V41.3793Z" fill="black"/>
<path d="M87.0199 41.3793H82.7578V45.6414H87.0199V41.3793Z" fill="black"/>
<path d="M91.1586 41.3793H86.8965V45.6414H91.1586V41.3793Z" fill="black"/>
<path d="M95.2962 41.3793H91.0342V45.6414H95.2962V41.3793Z" fill="black"/>
<path d="M99.4339 41.3793H95.1719V45.6414H99.4339V41.3793Z" fill="black"/>
<path d="M103.572 41.3793H99.3096V45.6414H103.572V41.3793Z" fill="black"/>
<path d="M16.6752 45.5172H12.4131V49.7793H16.6752V45.5172Z" fill="black"/>
<path d="M41.5033 45.5172H37.2412V49.7793H41.5033V45.5172Z" fill="black"/>
<path d="M45.641 45.5172H41.3789V49.7793H45.641V45.5172Z" fill="black"/>
<path d="M49.7787 45.5172H45.5166V49.7793H49.7787V45.5172Z" fill="black"/>
<path d="M53.9164 45.5172H49.6543V49.7793H53.9164V45.5172Z" fill="black"/>
<path d="M58.055 45.5172H53.793V49.7793H58.055V45.5172Z" fill="black"/>
<path d="M62.1927 45.5172H57.9307V49.7793H62.1927V45.5172Z" fill="black"/>
<path d="M70.4681 45.5172H66.2061V49.7793H70.4681V45.5172Z" fill="black"/>
<path d="M78.7445 45.5172H74.4824V49.7793H78.7445V45.5172Z" fill="black"/>
<path d="M91.1586 45.5172H86.8965V49.7793H91.1586V45.5172Z" fill="black"/>
<path d="M107.71 45.5172H103.448V49.7793H107.71V45.5172Z" fill="black"/>
<path d="M20.8128 49.6552H16.5508V53.9173H20.8128V49.6552Z" fill="black"/>
<path d="M24.9515 49.6552H20.6895V53.9173H24.9515V49.6552Z" fill="black"/>
<path d="M29.0892 49.6552H24.8271V53.9173H29.0892V49.6552Z" fill="black"/>
<path d="M33.2269 49.6552H28.9648V53.9173H33.2269V49.6552Z" fill="black"/>
<path d="M37.3646 49.6552H33.1025V53.9173H37.3646V49.6552Z" fill="black"/>
<path d="M41.5033 49.6552H37.2412V53.9173H41.5033V49.6552Z" fill="black"/>
<path d="M53.9164 49.6552H49.6543V53.9173H53.9164V49.6552Z" fill="black"/>
<path d="M62.1927 49.6552H57.9307V53.9173H62.1927V49.6552Z" fill="black"/>
<path d="M66.3304 49.6552H62.0684V53.9173H66.3304V49.6552Z" fill="black"/>
<path d="M74.6068 49.6552H70.3447V53.9173H74.6068V49.6552Z" fill="black"/>
<path d="M78.7445 49.6552H74.4824V53.9173H78.7445V49.6552Z" fill="black"/>
<path d="M99.4339 49.6552H95.1719V53.9173H99.4339V49.6552Z" fill="black"/>
<path d="M107.71 49.6552H103.448V53.9173H107.71V49.6552Z" fill="black"/>
<path d="M111.848 49.6552H107.586V53.9173H111.848V49.6552Z" fill="black"/>
<path d="M12.5375 53.7931H8.27539V58.0552H12.5375V53.7931Z" fill="black"/>
<path d="M20.8128 53.7931H16.5508V58.0552H20.8128V53.7931Z" fill="black"/>
<path d="M33.2269 53.7931H28.9648V58.0552H33.2269V53.7931Z" fill="black"/>
<path d="M41.5033 53.7931H37.2412V58.0552H41.5033V53.7931Z" fill="black"/>
<path d="M49.7787 53.7931H45.5166V58.0552H49.7787V53.7931Z" fill="black"/>
<path d="M53.9164 53.7931H49.6543V58.0552H53.9164V53.7931Z" fill="black"/>
<path d="M62.1927 53.7931H57.9307V58.0552H62.1927V53.7931Z" fill="black"/>
<path d="M70.4681 53.7931H66.2061V58.0552H70.4681V53.7931Z" fill="black"/>
<path d="M78.7445 53.7931H74.4824V58.0552H78.7445V53.7931Z" fill="black"/>
<path d="M82.8822 53.7931H78.6201V58.0552H82.8822V53.7931Z" fill="black"/>
<path d="M87.0199 53.7931H82.7578V58.0552H87.0199V53.7931Z" fill="black"/>
<path d="M91.1586 53.7931H86.8965V58.0552H91.1586V53.7931Z" fill="black"/>
<path d="M95.2962 53.7931H91.0342V58.0552H95.2962V53.7931Z" fill="black"/>
<path d="M111.848 53.7931H107.586V58.0552H111.848V53.7931Z" fill="black"/>
<path d="M16.6752 57.931H12.4131V62.1931H16.6752V57.931Z" fill="black"/>
<path d="M20.8128 57.931H16.5508V62.1931H20.8128V57.931Z" fill="black"/>
<path d="M29.0892 57.931H24.8271V62.1931H29.0892V57.931Z" fill="black"/>
<path d="M37.3646 57.931H33.1025V62.1931H37.3646V57.931Z" fill="black"/>
<path d="M41.5033 57.931H37.2412V62.1931H41.5033V57.931Z" fill="black"/>
<path d="M58.055 57.931H53.793V62.1931H58.055V57.931Z" fill="black"/>
<path d="M62.1927 57.931H57.9307V62.1931H62.1927V57.931Z" fill="black"/>
<path d="M66.3304 57.931H62.0684V62.1931H66.3304V57.931Z" fill="black"/>
<path d="M70.4681 57.931H66.2061V62.1931H70.4681V57.931Z" fill="black"/>
<path d="M82.8822 57.931H78.6201V62.1931H82.8822V57.931Z" fill="black"/>
<path d="M87.0199 57.931H82.7578V62.1931H87.0199V57.931Z" fill="black"/>
<path d="M103.572 57.931H99.3096V62.1931H103.572V57.931Z" fill="black"/>
<path d="M107.71 57.931H103.448V62.1931H107.71V57.931Z" fill="black"/>
<path d="M111.848 57.931H107.586V62.1931H111.848V57.931Z" fill="black"/>
<path d="M12.5375 62.069H8.27539V66.331H12.5375V62.069Z" fill="black"/>
<path d="M16.6752 62.069H12.4131V66.331H16.6752V62.069Z" fill="black"/>
<path d="M24.9515 62.069H20.6895V66.331H24.9515V62.069Z" fill="black"/>
<path d="M29.0892 62.069H24.8271V66.331H29.0892V62.069Z" fill="black"/>
<path d="M41.5033 62.069H37.2412V66.331H41.5033V62.069Z" fill="black"/>
<path d="M49.7787 62.069H45.5166V66.331H49.7787V62.069Z" fill="black"/>
<path d="M66.3304 62.069H62.0684V66.331H66.3304V62.069Z" fill="black"/>
<path d="M78.7445 62.069H74.4824V66.331H78.7445V62.069Z" fill="black"/>
<path d="M82.8822 62.069H78.6201V66.331H82.8822V62.069Z" fill="black"/>
<path d="M91.1586 62.069H86.8965V66.331H91.1586V62.069Z" fill="black"/>
<path d="M99.4339 62.069H95.1719V66.331H99.4339V62.069Z" fill="black"/>
<path d="M107.71 62.069H103.448V66.331H107.71V62.069Z" fill="black"/>
<path d="M12.5375 66.2069H8.27539V70.469H12.5375V66.2069Z" fill="black"/>
<path d="M24.9515 66.2069H20.6895V70.469H24.9515V66.2069Z" fill="black"/>
<path d="M29.0892 66.2069H24.8271V70.469H29.0892V66.2069Z" fill="black"/>
<path d="M37.3646 66.2069H33.1025V70.469H37.3646V66.2069Z" fill="black"/>
<path d="M45.641 66.2069H41.3789V70.469H45.641V66.2069Z" fill="black"/>
<path d="M53.9164 66.2069H49.6543V70.469H53.9164V66.2069Z" fill="black"/>
<path d="M58.055 66.2069H53.793V70.469H58.055V66.2069Z" fill="black"/>
<path d="M62.1927 66.2069H57.9307V70.469H62.1927V66.2069Z" fill="black"/>
<path d="M66.3304 66.2069H62.0684V70.469H66.3304V66.2069Z" fill="black"/>
<path d="M74.6068 66.2069H70.3447V70.469H74.6068V66.2069Z" fill="black"/>
<path d="M82.8822 66.2069H78.6201V70.469H82.8822V66.2069Z" fill="black"/>
<path d="M87.0199 66.2069H82.7578V70.469H87.0199V66.2069Z" fill="black"/>
<path d="M99.4339 66.2069H95.1719V70.469H99.4339V66.2069Z" fill="black"/>
<path d="M107.71 66.2069H103.448V70.469H107.71V66.2069Z" fill="black"/>
<path d="M111.848 66.2069H107.586V70.469H111.848V66.2069Z" fill="black"/>
<path d="M12.5375 70.3448H8.27539V74.6069H12.5375V70.3448Z" fill="black"/>
<path d="M33.2269 70.3448H28.9648V74.6069H33.2269V70.3448Z" fill="black"/>
<path d="M49.7787 70.3448H45.5166V74.6069H49.7787V70.3448Z" fill="black"/>
<path d="M53.9164 70.3448H49.6543V74.6069H53.9164V70.3448Z" fill="black"/>
<path d="M58.055 70.3448H53.793V74.6069H58.055V70.3448Z" fill="black"/>
<path d="M70.4681 70.3448H66.2061V74.6069H70.4681V70.3448Z" fill="black"/>
<path d="M74.6068 70.3448H70.3447V74.6069H74.6068V70.3448Z" fill="black"/>
<path d="M78.7445 70.3448H74.4824V74.6069H78.7445V70.3448Z" fill="black"/>
<path d="M87.0199 70.3448H82.7578V74.6069H87.0199V70.3448Z" fill="black"/>
<path d="M99.4339 70.3448H95.1719V74.6069H99.4339V70.3448Z" fill="black"/>
<path d="M111.848 70.3448H107.586V74.6069H111.848V70.3448Z" fill="black"/>
<path d="M12.5375 74.4828H8.27539V78.7448H12.5375V74.4828Z" fill="black"/>
<path d="M20.8128 74.4828H16.5508V78.7448H20.8128V74.4828Z" fill="black"/>
<path d="M33.2269 74.4828H28.9648V78.7448H33.2269V74.4828Z" fill="black"/>
<path d="M37.3646 74.4828H33.1025V78.7448H37.3646V74.4828Z" fill="black"/>
<path d="M41.5033 74.4828H37.2412V78.7448H41.5033V74.4828Z" fill="black"/>
<path d="M58.055 74.4828H53.793V78.7448H58.055V74.4828Z" fill="black"/>
<path d="M74.6068 74.4828H70.3447V78.7448H74.6068V74.4828Z" fill="black"/>
<path d="M78.7445 74.4828H74.4824V78.7448H78.7445V74.4828Z" fill="black"/>
<path d="M82.8822 74.4828H78.6201V78.7448H82.8822V74.4828Z" fill="black"/>
<path d="M87.0199 74.4828H82.7578V78.7448H87.0199V74.4828Z" fill="black"/>
<path d="M91.1586 74.4828H86.8965V78.7448H91.1586V74.4828Z" fill="black"/>
<path d="M95.2962 74.4828H91.0342V78.7448H95.2962V74.4828Z" fill="black"/>
<path d="M103.572 74.4828H99.3096V78.7448H103.572V74.4828Z" fill="black"/>
<path d="M45.641 78.6207H41.3789V82.8828H45.641V78.6207Z" fill="black"/>
<path d="M62.1927 78.6207H57.9307V82.8828H62.1927V78.6207Z" fill="black"/>
<path d="M66.3304 78.6207H62.0684V82.8828H66.3304V78.6207Z" fill="black"/>
<path d="M78.7445 78.6207H74.4824V82.8828H78.7445V78.6207Z" fill="black"/>
<path d="M95.2962 78.6207H91.0342V82.8828H95.2962V78.6207Z" fill="black"/>
<path d="M99.4339 78.6207H95.1719V82.8828H99.4339V78.6207Z" fill="black"/>
<path d="M103.572 78.6207H99.3096V82.8828H103.572V78.6207Z" fill="black"/>
<path d="M53.9164 82.7586H49.6543V87.0207H53.9164V82.7586Z" fill="black"/>
<path d="M66.3304 82.7586H62.0684V87.0207H66.3304V82.7586Z" fill="black"/>
<path d="M70.4681 82.7586H66.2061V87.0207H70.4681V82.7586Z" fill="black"/>
<path d="M78.7445 82.7586H74.4824V87.0207H78.7445V82.7586Z" fill="black"/>
<path d="M87.0199 82.7586H82.7578V87.0207H87.0199V82.7586Z" fill="black"/>
<path d="M95.2962 82.7586H91.0342V87.0207H95.2962V82.7586Z" fill="black"/>
<path d="M99.4339 82.7586H95.1719V87.0207H99.4339V82.7586Z" fill="black"/>
<path d="M103.572 82.7586H99.3096V87.0207H103.572V82.7586Z" fill="black"/>
<path d="M107.71 82.7586H103.448V87.0207H107.71V82.7586Z" fill="black"/>
<path d="M111.848 82.7586H107.586V87.0207H111.848V82.7586Z" fill="black"/>
<path d="M45.641 86.8965H41.3789V91.1586H45.641V86.8965Z" fill="black"/>
<path d="M49.7787 86.8965H45.5166V91.1586H49.7787V86.8965Z" fill="black"/>
<path d="M53.9164 86.8965H49.6543V91.1586H53.9164V86.8965Z" fill="black"/>
<path d="M62.1927 86.8965H57.9307V91.1586H62.1927V86.8965Z" fill="black"/>
<path d="M66.3304 86.8965H62.0684V91.1586H66.3304V86.8965Z" fill="black"/>
<path d="M78.7445 86.8965H74.4824V91.1586H78.7445V86.8965Z" fill="black"/>
<path d="M95.2962 86.8965H91.0342V91.1586H95.2962V86.8965Z" fill="black"/>
<path d="M99.4339 86.8965H95.1719V91.1586H99.4339V86.8965Z" fill="black"/>
<path d="M107.71 86.8965H103.448V91.1586H107.71V86.8965Z" fill="black"/>
<path d="M111.848 86.8965H107.586V91.1586H111.848V86.8965Z" fill="black"/>
<path d="M45.641 91.0345H41.3789V95.2966H45.641V91.0345Z" fill="black"/>
<path d="M62.1927 91.0345H57.9307V95.2966H62.1927V91.0345Z" fill="black"/>
<path d="M70.4681 91.0345H66.2061V95.2966H70.4681V91.0345Z" fill="black"/>
<path d="M74.6068 91.0345H70.3447V95.2966H74.6068V91.0345Z" fill="black"/>
<path d="M78.7445 91.0345H74.4824V95.2966H78.7445V91.0345Z" fill="black"/>
<path d="M82.8822 91.0345H78.6201V95.2966H82.8822V91.0345Z" fill="black"/>
<path d="M87.0199 91.0345H82.7578V95.2966H87.0199V91.0345Z" fill="black"/>
<path d="M91.1586 91.0345H86.8965V95.2966H91.1586V91.0345Z" fill="black"/>
<path d="M95.2962 91.0345H91.0342V95.2966H95.2962V91.0345Z" fill="black"/>
<path d="M99.4339 91.0345H95.1719V95.2966H99.4339V91.0345Z" fill="black"/>
<path d="M103.572 91.0345H99.3096V95.2966H103.572V91.0345Z" fill="black"/>
<path d="M107.71 91.0345H103.448V95.2966H107.71V91.0345Z" fill="black"/>
<path d="M111.848 91.0345H107.586V95.2966H111.848V91.0345Z" fill="black"/>
<path d="M45.641 95.1724H41.3789V99.4345H45.641V95.1724Z" fill="black"/>
<path d="M49.7787 95.1724H45.5166V99.4345H49.7787V95.1724Z" fill="black"/>
<path d="M78.7445 95.1724H74.4824V99.4345H78.7445V95.1724Z" fill="black"/>
<path d="M82.8822 95.1724H78.6201V99.4345H82.8822V95.1724Z" fill="black"/>
<path d="M87.0199 95.1724H82.7578V99.4345H87.0199V95.1724Z" fill="black"/>
<path d="M103.572 95.1724H99.3096V99.4345H103.572V95.1724Z" fill="black"/>
<path d="M107.71 95.1724H103.448V99.4345H107.71V95.1724Z" fill="black"/>
<path d="M111.848 95.1724H107.586V99.4345H111.848V95.1724Z" fill="black"/>
<path d="M45.641 99.3104H41.3789V103.572H45.641V99.3104Z" fill="black"/>
<path d="M49.7787 99.3104H45.5166V103.572H49.7787V99.3104Z" fill="black"/>
<path d="M58.055 99.3104H53.793V103.572H58.055V99.3104Z" fill="black"/>
<path d="M62.1927 99.3104H57.9307V103.572H62.1927V99.3104Z" fill="black"/>
<path d="M74.6068 99.3104H70.3447V103.572H74.6068V99.3104Z" fill="black"/>
<path d="M91.1586 99.3104H86.8965V103.572H91.1586V99.3104Z" fill="black"/>
<path d="M103.572 99.3104H99.3096V103.572H103.572V99.3104Z" fill="black"/>
<path d="M111.848 99.3104H107.586V103.572H111.848V99.3104Z" fill="black"/>
<path d="M49.7787 103.448H45.5166V107.71H49.7787V103.448Z" fill="black"/>
<path d="M53.9164 103.448H49.6543V107.71H53.9164V103.448Z" fill="black"/>
<path d="M58.055 103.448H53.793V107.71H58.055V103.448Z" fill="black"/>
<path d="M70.4681 103.448H66.2061V107.71H70.4681V103.448Z" fill="black"/>
<path d="M82.8822 103.448H78.6201V107.71H82.8822V103.448Z" fill="black"/>
<path d="M87.0199 103.448H82.7578V107.71H87.0199V103.448Z" fill="black"/>
<path d="M91.1586 103.448H86.8965V107.71H91.1586V103.448Z" fill="black"/>
<path d="M95.2962 103.448H91.0342V107.71H95.2962V103.448Z" fill="black"/>
<path d="M99.4339 103.448H95.1719V107.71H99.4339V103.448Z" fill="black"/>
<path d="M111.848 103.448H107.586V107.71H111.848V103.448Z" fill="black"/>
<path d="M45.641 107.586H41.3789V111.848H45.641V107.586Z" fill="black"/>
<path d="M49.7787 107.586H45.5166V111.848H49.7787V107.586Z" fill="black"/>
<path d="M53.9164 107.586H49.6543V111.848H53.9164V107.586Z" fill="black"/>
<path d="M58.055 107.586H53.793V111.848H58.055V107.586Z" fill="black"/>
<path d="M82.8822 107.586H78.6201V111.848H82.8822V107.586Z" fill="black"/>
<path d="M87.0199 107.586H82.7578V111.848H87.0199V107.586Z" fill="black"/>
<path d="M91.1586 107.586H86.8965V111.848H91.1586V107.586Z" fill="black"/>
<path d="M95.2962 107.586H91.0342V111.848H95.2962V107.586Z" fill="black"/>
<path d="M99.4339 107.586H95.1719V111.848H99.4339V107.586Z" fill="black"/>
<path d="M103.572 107.586H99.3096V111.848H103.572V107.586Z" fill="black"/>
<path d="M107.71 107.586H103.448V111.848H107.71V107.586Z" fill="black"/>
<path d="M111.848 107.586H107.586V111.848H111.848V107.586Z" fill="black"/>
<path d="M8.27539 8.27586V37.2414H37.2409V8.27586H8.27539ZM33.103 33.1034H12.4133V12.4138H33.103V33.1034Z" fill="black"/>
<path d="M82.7578 8.27586V37.2414H111.723V8.27586H82.7578ZM107.585 33.1034H86.8957V12.4138H107.585V33.1034Z" fill="black"/>
<path d="M8.27539 82.7586V111.724H37.2409V82.7586H8.27539ZM33.103 107.586H12.4133V86.8965H33.103V107.586Z" fill="black"/>
<path d="M28.9646 16.5517H16.5508V28.9655H28.9646V16.5517Z" fill="black"/>
<path d="M103.448 16.5517H91.0342V28.9655H103.448V16.5517Z" fill="black"/>
<path d="M28.9646 91.0345H16.5508V103.448H28.9646V91.0345Z" fill="black"/>
</svg>
